<?xml version="1.0" encoding="UTF-8" standalone="no"?>
<!-- Created with Inkscape (http://www.inkscape.org/) -->

<svg
   width="210mm"
   height="297mm"
   viewBox="0 0 210 297"
   version="1.1"
   id="svg75160"
   inkscape:version="1.1.2 (0a00cf5339, 2022-02-04)"
   sodipodi:docname="7_cells.svg"
   xmlns:inkscape="http://www.inkscape.org/namespaces/inkscape"
   xmlns:sodipodi="http://sodipodi.sourceforge.net/DTD/sodipodi-0.dtd"
   xmlns="http://www.w3.org/2000/svg"
   xmlns:svg="http://www.w3.org/2000/svg">
  <sodipodi:namedview
     id="namedview75162"
     pagecolor="#ffffff"
     bordercolor="#666666"
     borderopacity="1.0"
     inkscape:pageshadow="2"
     inkscape:pageopacity="0.0"
     inkscape:pagecheckerboard="0"
     inkscape:document-units="mm"
     showgrid="false"
     inkscape:zoom="0.32026164"
     inkscape:cx="711.91791"
     inkscape:cy="896.14228"
     inkscape:window-width="1920"
     inkscape:window-height="1043"
     inkscape:window-x="1920"
     inkscape:window-y="0"
     inkscape:window-maximized="1"
     inkscape:current-layer="layer1" />
  <defs
     id="defs75157" />
  <g
     inkscape:label="Layer 1"
     inkscape:groupmode="layer"
     id="layer1">
    <path
       id="path75245"
       style="fill:none;stroke:#ff0000;stroke-width:0.0701146;paint-order:stroke markers fill"
       inkscape:transform-center-x="1.671852e-06"
       d="m 151.97329,117.05393 -24.95749,14.39278 -24.94326,-14.41743 0.0142,-28.810209 c 8.31916,-4.797595 16.63832,-9.595189 24.95749,-14.392781 8.31442,4.80581 16.62884,9.611622 24.94326,14.417432 z"
       sodipodi:nodetypes="ccccccc" />
    <path
       id="path75245-5"
       style="fill:none;stroke:#ff0000;stroke-width:0.0701146;paint-order:stroke markers fill"
       inkscape:transform-center-x="1.671852e-06"
       d="M 101.20782,116.95673 76.250328,131.34951 51.307067,116.93208 51.321302,88.12187 C 59.640463,83.324275 67.959627,78.526681 76.278791,73.729089 L 101.22205,88.146521 Z"
       sodipodi:nodetypes="ccccccc" />
    <path
       id="path75245-5-52"
       style="fill:none;stroke:#ff0000;stroke-width:0.0701146;paint-order:stroke markers fill"
       inkscape:transform-center-x="1.671852e-06"
       d="m 127.02974,72.915151 -24.95748,14.39278 -24.943264,-14.41743 0.01423,-28.810212 C 85.462387,39.282695 93.781551,34.4851 102.10072,29.687509 l 24.94325,14.417431 z"
       sodipodi:nodetypes="ccccccc" />
    <path
       id="path75245-5-5"
       style="fill:none;stroke:#ff0000;stroke-width:0.0701146;paint-order:stroke markers fill"
       inkscape:transform-center-x="1.671852e-06"
       d="M 126.43979,161.0402 101.4823,175.43299 76.539036,161.01556 76.553271,132.20534 101.51076,117.81256 126.45402,132.23 Z" />
    <path
       id="path75245-4"
       style="fill:none;stroke:#ff0000;stroke-width:0.0701146;paint-order:stroke markers fill"
       inkscape:transform-center-x="1.671852e-06"
       d="m 151.7127,205.14524 -24.95749,14.39278 -24.94326,-14.41743 0.0142,-28.81021 24.95749,-14.39278 24.94326,14.41743 z" />
    <path
       id="path75245-5-1"
       style="fill:none;stroke:#ff0000;stroke-width:0.0701146;paint-order:stroke markers fill"
       inkscape:transform-center-x="1.671852e-06"
       d="M 100.94723,205.04804 75.989737,219.44082 51.046476,205.02339 51.060711,176.21318 76.0182,161.8204 100.96146,176.23783 Z" />
    <path
       id="path75245-5-3"
       style="fill:none;stroke:#ff0000;stroke-width:0.0701146;paint-order:stroke markers fill"
       inkscape:transform-center-x="1.671852e-06"
       d="m 75.840409,161.0209 -24.957489,14.39279 -24.943261,-14.41743 0.01423,-28.81022 24.957489,-14.39278 24.94326,14.41744 z" />
    <path
       id="path75245-9"
       style="fill:none;stroke:#ff0000;stroke-width:0.0701146;paint-order:stroke markers fill"
       inkscape:transform-center-x="1.671852e-06"
       d="m 176.8532,161.26768 -24.95749,14.39278 -24.94326,-14.41743 0.0142,-28.81021 24.95749,-14.39278 24.94326,14.41743 z" />
    <path
       id="path75245-5-4"
       style="fill:none;stroke:#ff0000;stroke-width:0.0701146;paint-order:stroke markers fill"
       inkscape:transform-center-x="1.671852e-06"
       d="m 178.07278,72.951479 -24.95749,14.39278 -24.94326,-14.417428 0.0142,-28.810212 c 8.31916,-4.797594 16.63832,-9.595189 24.95749,-14.39278 l 24.94326,14.417431 z"
       sodipodi:nodetypes="ccccccc" />
    <path
       id="path75245-5-43"
       style="fill:none;stroke:#ff0000;stroke-width:0.0701146;paint-order:stroke markers fill"
       inkscape:transform-center-x="1.671852e-06"
       d="m 202.78017,117.2282 -24.95749,14.39278 -24.94326,-14.41743 0.0142,-28.810211 c 8.31916,-4.7976 16.63833,-9.595192 24.95749,-14.392783 l 24.94326,14.417433 z"
       sodipodi:nodetypes="ccccccc" />
    <path
       id="path75245-5-8"
       style="fill:none;stroke:#ff0000;stroke-width:0.0701146;paint-order:stroke markers fill"
       inkscape:transform-center-x="1.671852e-06"
       d="m 202.91641,205.13526 -24.95749,14.39278 -24.94326,-14.41743 0.0142,-28.81021 c 8.31916,-4.79759 16.63832,-9.59519 24.95749,-14.39278 l 24.94326,14.41743 z"
       sodipodi:nodetypes="ccccccc" />
    <path
       id="path75245-5-6"
       style="fill:none;stroke:#ff0000;stroke-width:0.0701146;paint-order:stroke markers fill"
       inkscape:transform-center-x="1.671852e-06"
       d="m 126.11314,249.23265 -24.95749,14.39278 -24.943261,-14.41743 0.0142,-28.81021 c 8.31917,-4.79759 16.63833,-9.59519 24.957491,-14.39278 l 24.94326,14.41743 z"
       sodipodi:nodetypes="ccccccc" />
    <path
       id="path75245-5-0"
       style="fill:none;stroke:#ff0000;stroke-width:0.0701146;paint-order:stroke markers fill"
       inkscape:transform-center-x="1.671852e-06"
       d="m 177.29555,249.42151 -24.95749,14.39278 -24.94326,-14.41743 0.0142,-28.81021 c 8.31916,-4.79759 16.63833,-9.59519 24.95749,-14.39278 l 24.94326,14.41743 z"
       sodipodi:nodetypes="ccccccc" />
    <path
       id="path75245-5-89"
       style="fill:none;stroke:#ff0000;stroke-width:0.0701146;paint-order:stroke markers fill"
       inkscape:transform-center-x="1.671852e-06"
       d="m 74.943526,248.75409 -24.95749,14.39278 -24.94326,-14.41743 0.0142,-28.81021 c 8.31916,-4.79759 16.63832,-9.59519 24.95749,-14.39278 l 24.94326,14.41743 z"
       sodipodi:nodetypes="ccccccc" />
    <path
       id="path75245-5-2"
       style="fill:none;stroke:#ff0000;stroke-width:0.0701146;paint-order:stroke markers fill"
       inkscape:transform-center-x="1.671852e-06"
       d="m 49.716986,204.45471 -24.957485,14.39278 -24.94325993,-14.41743 0.01423,-28.81021 C 8.1496319,170.82226 16.468796,166.02466 24.78796,161.22707 l 24.943266,14.41743 z"
       sodipodi:nodetypes="ccccccc" />
    <path
       id="path75245-5-23"
       style="fill:none;stroke:#ff0000;stroke-width:0.0701146;paint-order:stroke markers fill"
       inkscape:transform-center-x="1.671852e-06"
       d="M 50.352835,116.85212 25.395345,131.2449 0.45208507,116.82747 0.46632507,88.017261 C 8.7854865,83.219667 17.10465,78.422072 25.423814,73.624481 l 24.94326,14.417431 z"
       sodipodi:nodetypes="ccccccc" />
    <path
       id="path75245-5-18"
       style="fill:none;stroke:#ff0000;stroke-width:0.0701146;paint-order:stroke markers fill"
       inkscape:transform-center-x="1.671852e-06"
       d="m 75.594909,72.622922 -24.95749,14.392783 -24.94326,-14.417431 0.01423,-28.810212 c 8.319161,-4.797594 16.638325,-9.595189 24.957489,-14.39278 l 24.94326,14.417431 z"
       sodipodi:nodetypes="ccccccc" />
    <path
       id="path75245-5-34"
       style="fill:none;stroke:#ff0000;stroke-width:0.0701146;paint-order:stroke markers fill"
       inkscape:transform-center-x="1.671852e-06"
       d="M 24.655638,160.07092 -0.30185093,174.4637 -25.245111,160.04627 l 0.01423,-28.81021 c 8.319161,-4.7976 16.6383251,-9.59519 24.95748907,-14.39278 L 24.669868,131.26071 Z"
       sodipodi:nodetypes="ccccccc" />
    <path
       id="path75245-5-22"
       style="fill:none;stroke:#ff0000;stroke-width:0.0701146;paint-order:stroke markers fill"
       inkscape:transform-center-x="1.671852e-06"
       d="m 227.82382,161.27346 -24.95749,14.39278 -24.94326,-14.41743 0.0142,-28.81021 c 8.31916,-4.79759 16.63833,-9.59519 24.95749,-14.39278 l 24.94327,14.41743 z"
       sodipodi:nodetypes="ccccccc" />
  </g>
</svg>
