<svg version="1.1" xmlns="http://www.w3.org/2000/svg" viewBox="0 0 97.74156529435076 96.64661367048663" width="97.74156529435076" height="96.64661367048663"><!-- svg-source:excalidraw --><metadata></metadata><defs><style class="style-fonts">
      </style></defs><rect x="0" y="0" width="97.74156529435076" height="96.64661367048663" fill="#ffffff"></rect><g stroke-linecap="round"><g transform="translate(26.424274357961423 14.301595665180372) rotate(0 22.44650828921396 34.02171117006294)"><path d="M0 0 C2.93 -1.25, 5.86 -2.5, 10.09 -4.3 M0 0 C2.71 -1.16, 5.42 -2.31, 10.09 -4.3 M10.09 -4.3 C14.39 -3.11, 18.69 -1.93, 21.98 -1.02 M10.09 -4.3 C14.49 -3.08, 18.9 -1.87, 21.98 -1.02 M21.98 -1.02 C26.02 0.68, 30.06 2.38, 33.71 3.91 M21.98 -1.02 C25.32 0.39, 28.67 1.79, 33.71 3.91 M33.71 3.91 C37.27 6.05, 40.83 8.19, 44.89 10.64 M33.71 3.91 C36.42 5.54, 39.14 7.18, 44.89 10.64 M44.89 10.64 C48.45 12.84, 52.01 15.04, 55.14 16.97 M44.89 10.64 C47.01 11.95, 49.13 13.26, 55.14 16.97 M55.14 16.97 C56.9 21.4, 58.67 25.83, 59.6 28.16 M55.14 16.97 C56.27 19.81, 57.4 22.64, 59.6 28.16 M59.6 28.16 C60.03 31.3, 60.46 34.45, 61.32 40.67 M59.6 28.16 C60.21 32.58, 60.81 37.01, 61.32 40.67 M61.32 40.67 C59.31 42.75, 57.31 44.83, 52.95 49.35 M61.32 40.67 C58.34 43.75, 55.37 46.84, 52.95 49.35 M52.95 49.35 C49.58 52.15, 46.22 54.95, 43.17 57.48 M52.95 49.35 C49.41 52.3, 45.87 55.24, 43.17 57.48 M43.17 57.48 C39.87 60.05, 36.56 62.61, 33.08 65.31 M43.17 57.48 C39.97 59.96, 36.78 62.44, 33.08 65.31 M33.08 65.31 C30.65 67.04, 28.22 68.78, 23.23 72.35 M33.08 65.31 C29.31 68, 25.54 70.69, 23.23 72.35 M23.23 72.35 C19.14 70.27, 15.05 68.2, 12.28 66.79 M23.23 72.35 C19.69 70.55, 16.16 68.76, 12.28 66.79 M12.28 66.79 C8.99 64.63, 5.7 62.47, 1.8 59.91 M12.28 66.79 C9.31 64.84, 6.35 62.9, 1.8 59.91 M1.8 59.91 C-1.82 58.15, -5.43 56.4, -9.31 54.51 M1.8 59.91 C-2.34 57.9, -6.48 55.89, -9.31 54.51 M-9.31 54.51 C-10.99 52.96, -12.67 51.41, -16.42 47.94 M-9.31 54.51 C-11.06 52.9, -12.8 51.28, -16.42 47.94 M-16.42 47.94 C-15.2 43.63, -13.97 39.31, -13.06 36.13 M-16.42 47.94 C-15.48 44.61, -14.53 41.28, -13.06 36.13 M-13.06 36.13 C-12.13 33.13, -11.19 30.12, -9.15 23.54 M-13.06 36.13 C-11.62 31.49, -10.18 26.84, -9.15 23.54 M-9.15 23.54 C-8.13 19.81, -7.11 16.07, -5.87 11.5 M-9.15 23.54 C-8.22 20.15, -7.3 16.75, -5.87 11.5 M-5.87 11.5 C-4.23 8.29, -2.59 5.08, 0 0 M-5.87 11.5 C-4.3 8.43, -2.74 5.37, 0 0" stroke="#ff0000" stroke-width="0.5" fill="none"></path></g></g><mask></mask></svg>
