<svg version="1.1" xmlns="http://www.w3.org/2000/svg" viewBox="0 0 158.91861754463866 113.36110061949134" width="158.91861754463866" height="113.36110061949134"><!-- svg-source:excalidraw --><metadata></metadata><defs><style class="style-fonts">
      </style></defs><rect x="0" y="0" width="158.91861754463866" height="113.36110061949134" fill="#ffffff"></rect><g stroke-linecap="round"><g transform="translate(87.60132660824931 31.01608261418508) rotate(0 22.44650828921396 34.02171117006294)"><path d="M0 0 C2.93 -1.25, 5.86 -2.5, 10.09 -4.3 M0 0 C2.71 -1.16, 5.42 -2.31, 10.09 -4.3 M10.09 -4.3 C14.39 -3.11, 18.69 -1.93, 21.98 -1.02 M10.09 -4.3 C14.49 -3.08, 18.9 -1.87, 21.98 -1.02 M21.98 -1.02 C26.02 0.68, 30.06 2.38, 33.71 3.91 M21.98 -1.02 C25.32 0.39, 28.67 1.79, 33.71 3.91 M33.71 3.91 C37.27 6.05, 40.83 8.19, 44.89 10.64 M33.71 3.91 C36.42 5.54, 39.14 7.18, 44.89 10.64 M44.89 10.64 C48.45 12.84, 52.01 15.04, 55.14 16.97 M44.89 10.64 C47.01 11.95, 49.13 13.26, 55.14 16.97 M55.14 16.97 C56.9 21.4, 58.67 25.83, 59.6 28.16 M55.14 16.97 C56.27 19.81, 57.4 22.64, 59.6 28.16 M59.6 28.16 C60.03 31.3, 60.46 34.45, 61.32 40.67 M59.6 28.16 C60.21 32.58, 60.81 37.01, 61.32 40.67 M61.32 40.67 C59.31 42.75, 57.31 44.83, 52.95 49.35 M61.32 40.67 C58.34 43.75, 55.37 46.84, 52.95 49.35 M52.95 49.35 C49.58 52.15, 46.22 54.95, 43.17 57.48 M52.95 49.35 C49.41 52.3, 45.87 55.24, 43.17 57.48 M43.17 57.48 C39.87 60.05, 36.56 62.61, 33.08 65.31 M43.17 57.48 C39.97 59.96, 36.78 62.44, 33.08 65.31 M33.08 65.31 C30.65 67.04, 28.22 68.78, 23.23 72.35 M33.08 65.31 C29.31 68, 25.54 70.69, 23.23 72.35 M23.23 72.35 C19.14 70.27, 15.05 68.2, 12.28 66.79 M23.23 72.35 C19.69 70.55, 16.16 68.76, 12.28 66.79 M12.28 66.79 C8.99 64.63, 5.7 62.47, 1.8 59.91 M12.28 66.79 C9.31 64.84, 6.35 62.9, 1.8 59.91 M1.8 59.91 C-1.82 58.15, -5.43 56.4, -9.31 54.51 M1.8 59.91 C-2.34 57.9, -6.48 55.89, -9.31 54.51 M-9.31 54.51 C-10.99 52.96, -12.67 51.41, -16.42 47.94 M-9.31 54.51 C-11.06 52.9, -12.8 51.28, -16.42 47.94 M-16.42 47.94 C-15.2 43.63, -13.97 39.31, -13.06 36.13 M-16.42 47.94 C-15.48 44.61, -14.53 41.28, -13.06 36.13 M-13.06 36.13 C-12.13 33.13, -11.19 30.12, -9.15 23.54 M-13.06 36.13 C-11.62 31.49, -10.18 26.84, -9.15 23.54 M-9.15 23.54 C-8.13 19.81, -7.11 16.07, -5.87 11.5 M-9.15 23.54 C-8.22 20.15, -7.3 16.75, -5.87 11.5 M-5.87 11.5 C-4.23 8.29, -2.59 5.08, 0 0 M-5.87 11.5 C-4.3 8.43, -2.74 5.37, 0 0" stroke="#ff0000" stroke-width="0.5" fill="none"></path></g></g><mask></mask><g stroke-linecap="round"><g transform="translate(68.17914757348564 79.70164108641626) rotate(0 -22.006073676334665 -34.38924265895588)"><path d="M0 0 C1.43 -3.45, 2.86 -6.89, 4.63 -11.14 M0 0 C1.13 -2.72, 2.25 -5.43, 4.63 -11.14 M4.63 -11.14 C5.44 -13.73, 6.25 -16.31, 8.31 -22.86 M4.63 -11.14 C6.1 -15.82, 7.57 -20.49, 8.31 -22.86 M8.31 -22.86 C9.27 -26.08, 10.23 -29.31, 11.99 -35.23 M8.31 -22.86 C9.41 -26.55, 10.51 -30.24, 11.99 -35.23 M11.99 -35.23 C12.8 -39.67, 13.6 -44.12, 14.17 -47.22 M11.99 -35.23 C12.53 -38.16, 13.06 -41.09, 14.17 -47.22 M14.17 -47.22 C11.35 -49.72, 8.53 -52.22, 5.1 -55.25 M14.17 -47.22 C12.06 -49.09, 9.96 -50.95, 5.1 -55.25 M5.1 -55.25 C1.05 -58.07, -3 -60.89, -5.48 -62.62 M5.1 -55.25 C1.57 -57.71, -1.97 -60.17, -5.48 -62.62 M-5.48 -62.62 C-9.37 -64.55, -13.26 -66.48, -16.72 -68.19 M-5.48 -62.62 C-8.62 -64.18, -11.76 -65.73, -16.72 -68.19 M-16.72 -68.19 C-20.57 -68.7, -24.42 -69.21, -28.15 -69.7 M-16.72 -68.19 C-19.42 -68.55, -22.13 -68.91, -28.15 -69.7 M-28.15 -69.7 C-32.43 -67.25, -36.72 -64.79, -39.2 -63.37 M-28.15 -69.7 C-32.49 -67.21, -36.83 -64.73, -39.2 -63.37 M-39.2 -63.37 C-42.69 -60.92, -46.18 -58.47, -49.3 -56.29 M-39.2 -63.37 C-42.6 -60.99, -46 -58.6, -49.3 -56.29 M-49.3 -56.29 C-52.78 -52.93, -56.25 -49.56, -58.18 -47.7 M-49.3 -56.29 C-51.42 -54.24, -53.55 -52.18, -58.18 -47.7 M-58.18 -47.7 C-57.37 -43.36, -56.56 -39.02, -55.92 -35.55 M-58.18 -47.7 C-57.65 -44.85, -57.12 -42.01, -55.92 -35.55 M-55.92 -35.55 C-55.37 -32.43, -54.82 -29.32, -53.71 -22.94 M-55.92 -35.55 C-55.47 -33.02, -55.03 -30.49, -53.71 -22.94 M-53.71 -22.94 C-53.08 -18.4, -52.44 -13.86, -51.92 -10.11 M-53.71 -22.94 C-53.09 -18.53, -52.48 -14.12, -51.92 -10.11 M-51.92 -10.11 C-51.04 -5.93, -50.17 -1.74, -49.61 0.92 M-51.92 -10.11 C-51.05 -5.97, -50.18 -1.82, -49.61 0.92 M-49.61 0.92 C-45.35 0.41, -41.1 -0.11, -37.52 -0.55 M-49.61 0.92 C-46.01 0.49, -42.42 0.05, -37.52 -0.55 M-37.52 -0.55 C-33.11 -0.77, -28.7 -0.99, -24.8 -1.18 M-37.52 -0.55 C-32.7 -0.79, -27.89 -1.03, -24.8 -1.18 M-24.8 -1.18 C-22.27 -1.03, -19.73 -0.88, -12.29 -0.44 M-24.8 -1.18 C-20.53 -0.93, -16.27 -0.68, -12.29 -0.44 M-12.29 -0.44 C-9.31 -0.34, -6.34 -0.23, 0 0 M-12.29 -0.44 C-8.13 -0.29, -3.97 -0.14, 0 0" stroke="#ff0000" stroke-width="0.5" fill="none"></path></g></g><mask></mask></svg>
